<?xml version="1.0" encoding="utf-8"?>
<!-- Generator: Adobe Illustrator 19.1.1, SVG Export Plug-In . SVG Version: 6.00 Build 0)  -->
<svg version="1.1" id="Layer_1" xmlns="http://www.w3.org/2000/svg" xmlns:xlink="http://www.w3.org/1999/xlink" x="0px" y="0px"
	 viewBox="0 0 411.8 137.6" style="enable-background:new 0 0 411.8 137.6;" xml:space="preserve">
<style type="text/css">
	.st0{fill:#404449;}
	.st1{fill:#A8B843;}
</style>
<g id="Logo">
	<g>
		<g>
			<path class="st0" d="M215.6,22.4c0,0,0.5,0,1.1,0h23.8c0.6,0,1.1,0.5,1.1,1.1v6.3c0,0.6-0.5,1.1-1.1,1.1h-15.9V38h13.1
				c0.6,0,1.1,0.5,1.1,1.1v6.3c0,0.6-0.5,1.1-1.1,1.1h-13.1v7.8h15.9c0.6,0,1.1,0.5,1.1,1.1v6.3c0,0.6-0.5,1.1-1.1,1.1h-23.8
				c-0.6,0-1.1,0-1.1,0V22.4z"/>
		</g>
		<g>
			<path class="st0" d="M247.6,22.4c0,0,0.8,0,1.7,0h7.7c0.5,0,0.9,0.3,1,0.6l9.5,21h0.3l9.5-21c0.1-0.3,0.5-0.6,1-0.6h7.7
				c0.9,0,1.7,0,1.7,0l-18.8,40.3c-0.2,0.3-0.5,0.6-1,0.6h-0.6c-0.5,0-0.8-0.3-1-0.6L247.6,22.4z"/>
		</g>
		<g>
			<path class="st0" d="M329.9,22.9c0-0.6,0.5-1,1.1-1h1.4l23,22.1h0.1V23.5c0-0.6,0.5-1.1,1.1-1.1h6.9c0.6,0,1.1,0.5,1.1,1.1v39.8
				c0,0-0.5,0-1.1,0h-0.9c-0.2,0-0.6-0.2-0.7-0.3l-22.7-22.9H339v21.5c0,0.6-0.5,1.1-1.1,1.1l-7.9,0L329.9,22.9z"/>
		</g>
		<g>
			<path class="st0" d="M305,22.3c-0.2-0.3-0.6-0.7-1-0.7h-0.6c-0.4,0-0.8,0.3-1,0.7l-18.7,40.3h1.7h6.3c1.1,0,1.8-0.6,2.1-1.3
				l3.1-7.1l13.4,0.1l3.3,7c0.5,1.1,1,1.4,2,1.4h6.4c0.9,0,1.7,0,1.7,0L305,22.3z M306.4,42.5l-2.6,4.1c0,0,0,0-0.1,0
				c0,0-0.1,0-0.1,0l-2.6-4.1c0,0,0-0.1,0-0.1l2.6-4.1c0,0,0.1-0.1,0.2,0l2.6,4.1C306.4,42.4,306.4,42.4,306.4,42.5z"/>
		</g>
		<g>
			<path class="st0" d="M393.1,22.3c-0.2-0.3-0.6-0.7-1-0.7h-0.6c-0.4,0-0.8,0.3-1,0.7l-18.7,40.3h1.7h6.3c1.1,0,1.8-0.6,2.1-1.3
				l3.1-7.1l13.4,0.1l3.3,7c0.5,1.1,1,1.4,2,1.4h6.4c0.9,0,1.7,0,1.7,0L393.1,22.3z M394.5,42.5l-2.6,4.1c0,0-0.1,0-0.1,0
				s-0.1,0-0.1,0l-2.6-4.1c0,0,0-0.1,0-0.1l2.6-4.1c0,0,0.1-0.1,0.2,0l2.6,4.1C394.5,42.4,394.5,42.4,394.5,42.5z"/>
		</g>
		<g>
			<path class="st0" d="M169.8,22.6c0,0,0.4,0,1,0h13.8c10.9,0,19.8,8.9,19.8,19.8c0,11-8.9,19.9-19.8,19.9h-13.8c-0.6,0-1,0-1,0
				V22.6z M184.1,53.8c6.4,0,11-5,11-11.5c0-6.4-4.6-11.4-11-11.4h-5.4v22.9H184.1z"/>
		</g>
	</g>
	<g>
		<g>
			<path class="st0" d="M37.6,67.4l31-31.1l31,31.1l18.1-18.1L68.6,0L19.5,49.2L37.6,67.4z M104.9,49.2l-5.3,5.3l-31-31.1l-31,31.1
				l-5.3-5.3l36.3-36.4L104.9,49.2z"/>
		</g>
		<g>
			<polygon class="st0" points="64.6,104.7 64.6,94 43.5,73 50,66.5 64.6,81.1 64.6,53.6 72.6,53.6 72.6,81.1 87.4,66.5 93.7,73 
				72.6,94 72.6,104.7 130.6,46.8 137.2,53.3 117.8,72.8 127.9,82.8 121.4,89.3 111.1,79.2 72.6,117.5 72.6,137.6 64.6,137.6 
				64.6,117.5 26.1,79.2 15.9,89.3 9.4,82.8 19.5,72.8 0,53.3 6.6,46.8 			"/>
		</g>
	</g>
	<g>
		<path class="st1" d="M170.9,115.8V81.7h2.4v31.9h16.2v2.2H170.9z"/>
		<path class="st1" d="M210.2,115.8l-0.6-4h-0.2c-1.3,1.6-2.6,2.8-3.9,3.5c-1.3,0.7-2.9,1-4.8,1c-2.5,0-4.4-0.6-5.8-1.9
			c-1.4-1.3-2.1-3-2.1-5.3c0-2.5,1-4.4,3.1-5.8c2.1-1.4,5-2.1,8.9-2.2l4.8-0.1v-1.7c0-2.4-0.5-4.2-1.5-5.5c-1-1.2-2.6-1.8-4.7-1.8
			c-2.3,0-4.8,0.7-7.3,2l-0.9-2c2.8-1.3,5.5-2,8.3-2c2.8,0,4.9,0.7,6.2,2.2c1.4,1.4,2.1,3.7,2.1,6.8v16.9H210.2z M200.9,114.2
			c2.7,0,4.8-0.8,6.4-2.3c1.6-1.5,2.3-3.7,2.3-6.5v-2.5l-4.4,0.2c-3.6,0.2-6.1,0.7-7.6,1.7c-1.5,0.9-2.3,2.4-2.3,4.4
			c0,1.6,0.5,2.8,1.5,3.7C197.7,113.7,199.1,114.2,200.9,114.2z"/>
		<path class="st1" d="M230.8,89.9c3.5,0,6.2,1.1,8,3.4c1.8,2.2,2.7,5.5,2.7,9.8c0,4.2-0.9,7.5-2.8,9.8c-1.9,2.3-4.5,3.4-8,3.4
			c-1.8,0-3.4-0.4-4.9-1.1s-2.6-1.8-3.4-3.2h-0.2l-0.7,3.8h-1.4V79.5h2.3v9.1c0,1.4,0,2.6-0.1,3.8l-0.1,2h0.2c1-1.5,2.1-2.6,3.5-3.4
			C227.3,90.3,228.9,89.9,230.8,89.9z M230.8,92c-3,0-5.1,0.9-6.4,2.6c-1.3,1.7-1.9,4.5-1.9,8.5v0.4c0,3.8,0.7,6.6,2,8.2
			c1.3,1.7,3.4,2.5,6.3,2.5c2.8,0,4.8-1,6.2-2.9s2.1-4.7,2.1-8.3C239.1,95.7,236.3,92,230.8,92z"/>
		<path class="st1" d="M264.2,109.2c0,2.3-0.9,4-2.6,5.2c-1.7,1.2-4.2,1.8-7.3,1.8c-3.4,0-6.1-0.5-8.1-1.6v-2.5
			c2.5,1.3,5.2,1.9,8.1,1.9c2.5,0,4.4-0.4,5.7-1.3c1.3-0.8,1.9-1.9,1.9-3.3c0-1.3-0.5-2.4-1.6-3.2c-1-0.9-2.7-1.7-5.1-2.6
			c-2.5-0.9-4.3-1.7-5.3-2.4c-1-0.7-1.8-1.4-2.3-2.2c-0.5-0.8-0.8-1.8-0.8-3c0-1.9,0.8-3.4,2.4-4.5s3.8-1.7,6.7-1.7
			c2.7,0,5.3,0.5,7.8,1.5l-0.9,2.1c-2.5-1-4.8-1.5-6.9-1.5c-2.1,0-3.7,0.3-4.9,1c-1.2,0.7-1.8,1.6-1.8,2.9c0,1.3,0.5,2.4,1.4,3.2
			c0.9,0.8,2.8,1.7,5.5,2.7c2.3,0.8,3.9,1.6,5,2.2s1.8,1.4,2.3,2.3S264.2,108.1,264.2,109.2z"/>
	</g>
</g>
</svg>
