<?xml version="1.0" encoding="utf-8"?>
<!-- Generator: Adobe Illustrator 19.1.1, SVG Export Plug-In . SVG Version: 6.00 Build 0)  -->
<svg version="1.1" id="Layer_1" xmlns="http://www.w3.org/2000/svg" xmlns:xlink="http://www.w3.org/1999/xlink" x="0px" y="0px"
	 viewBox="0 0 30 30" style="enable-background:new 0 0 30 30;" xml:space="preserve">
<style type="text/css">
	.st0{fill:#4D4D4D;}
</style>
<path class="st0" d="M6,13c2.4,4.7,6.3,8.6,11,11l3.7-3.7c0.5-0.5,1.1-0.6,1.7-0.4c1.9,0.6,3.9,1,5.9,1c0.9,0,1.7,0.7,1.7,1.7v5.8
	c0,0.9-0.8,1.7-1.7,1.7C12.7,30,0,17.3,0,1.7C0,0.8,0.8,0,1.7,0h5.8c0.9,0,1.7,0.8,1.7,1.7c0,2.1,0.3,4.1,0.9,5.9
	c0.2,0.6,0,1.2-0.4,1.7L6,13z"/>
</svg>
