<?xml version="1.0" encoding="utf-8"?>
<!-- Generator: Adobe Illustrator 19.1.1, SVG Export Plug-In . SVG Version: 6.00 Build 0)  -->
<svg version="1.1" id="Layer_1" xmlns="http://www.w3.org/2000/svg" xmlns:xlink="http://www.w3.org/1999/xlink" x="0px" y="0px"
	 viewBox="0 0 244.7 236.3" style="enable-background:new 0 0 244.7 236.3;" xml:space="preserve">
<style type="text/css">
	.st0{fill:#404449;}
</style>
<g>
	<g>
		<path class="st0" d="M45.5,161.4h1.1h24.1c0.6,0,1.1,0.5,1.1,1.1v6.4c0,0.6-0.5,1.1-1.1,1.1H54.6v7.2h13.3c0.6,0,1.1,0.5,1.1,1.1
			v6.4c0,0.6-0.5,1.1-1.1,1.1H54.6v7.9h16.2c0.6,0,1.1,0.5,1.1,1.1v6.4c0,0.6-0.5,1.1-1.1,1.1H46.6h-1.1V161.4z"/>
		<path class="st0" d="M77.9,161.4h1.7h7.8c0.5,0,0.9,0.4,1,0.6l9.6,21.3h0.4l9.6-21.3c0.1-0.3,0.5-0.6,1-0.6h7.8h1.7l-19.1,40.8
			c-0.2,0.3-0.5,0.6-1,0.6h-0.6c-0.5,0-0.8-0.3-1-0.6L77.9,161.4z"/>
		<path class="st0" d="M161.4,161.8c0-0.6,0.5-1.1,1.1-1.1h1.5l23.3,22.4h0.1v-20.7c0-0.6,0.5-1.1,1.1-1.1h7c0.6,0,1.1,0.5,1.1,1.1
			v40.3h-1.1h-0.9c-0.2,0-0.6-0.2-0.8-0.3l-23-23.2h-0.1v21.8c0,0.6-0.5,1.1-1.1,1.1l-8,0L161.4,161.8z"/>
		<path class="st0" d="M136.4,161.4c-0.2-0.3-0.6-0.7-1-0.7h-0.6c-0.4,0-0.8,0.3-1,0.7l-18.9,40.8h1.7h6.4c1.2,0,1.8-0.7,2.1-1.4
			l3.1-7.2l13.6,0.1l3.3,7.1c0.5,1.1,1,1.5,2,1.5h6.5h1.7L136.4,161.4z M137.9,181.7l-2.6,4.2c0,0-0.1,0-0.1,0c0,0-0.1,0-0.1,0
			l-2.6-4.2c0,0,0-0.1,0-0.1l2.6-4.2c0,0,0.1-0.1,0.2,0l2.6,4.2C137.9,181.6,137.9,181.6,137.9,181.7"/>
		<path class="st0" d="M225.8,161.4c-0.2-0.3-0.6-0.7-1-0.7h-0.6c-0.4,0-0.8,0.3-1,0.7l-18.9,40.8h1.7h6.4c1.2,0,1.8-0.7,2.1-1.4
			l3.1-7.2l13.6,0.1l3.3,7.1c0.5,1.1,1,1.5,2,1.5h6.5h1.7L225.8,161.4z M227.2,181.7l-2.6,4.2c0,0-0.1,0-0.1,0c0,0-0.1,0-0.1,0
			l-2.6-4.2c0,0,0-0.1,0-0.1l2.6-4.2c0,0,0.1-0.1,0.2,0l2.6,4.2C227.2,181.6,227.2,181.6,227.2,181.7"/>
		<path class="st0" d="M0,161.5h1h14c11,0,20.1,9,20.1,20c0,11.1-9,20.1-20.1,20.1H1H0V161.5z M14.4,193.1c6.5,0,11.2-5.1,11.2-11.6
			c0-6.5-4.7-11.6-11.2-11.6H8.9v23.2H14.4z"/>
		<path class="st0" d="M85.4,235.5v-17c0-0.5,0.3-0.8,0.8-0.8h2.6c0.4,0,0.6,0.3,0.6,0.8v0.3c0,0.5-0.2,0.8-0.6,0.8h-1v14.7h1
			c0.4,0,0.6,0.3,0.6,0.8v0.3c0,0.5-0.2,0.8-0.6,0.8h-2.6C85.7,236.3,85.4,236,85.4,235.5"/>
		<path class="st0" d="M95.4,232.6v-12.9c0-0.4,0.4-0.7,1.2-0.7h0.7c0.8,0,1.2,0.2,1.2,0.7v11.1h4.6c0.4,0,0.6,0.3,0.6,1v0.6
			c0,0.7-0.2,1-0.6,1h-6.9C95.7,233.4,95.4,233.2,95.4,232.6"/>
		<path class="st0" d="M108.2,233c0-0.1,0-0.2,0.1-0.4l4.5-13.2c0.1-0.3,0.5-0.4,1.2-0.4h1.1c0.7,0,1.1,0.1,1.2,0.4l4.5,13.2
			c0,0.1,0.1,0.3,0.1,0.4c0,0.3-0.3,0.5-1,0.5h-0.9c-0.7,0-1.1-0.1-1.1-0.4l-0.8-2.5H112l-0.8,2.5c-0.1,0.3-0.4,0.4-0.9,0.4h-0.8
			C108.6,233.5,108.2,233.3,108.2,233 M112.9,227.8h3.1l-1.2-3.7l-0.3-1.3h-0.1c-0.1,0.6-0.2,1.1-0.3,1.3L112.9,227.8z"/>
		<path class="st0" d="M125.8,232.6v-12.7c0-0.5,0.3-0.8,0.8-0.8h4.1c1.7,0,2.9,0.3,3.7,1c0.8,0.6,1.2,1.5,1.2,2.7
			c0,0.7-0.2,1.3-0.6,1.9c-0.4,0.6-0.9,1-1.6,1.2l0,0.1c0.8,0.2,1.5,0.6,2,1.2c0.5,0.6,0.8,1.4,0.8,2.2c0,1.3-0.4,2.4-1.3,3.1
			c-0.9,0.7-2.1,1.1-3.8,1.1h-4.4C126,233.4,125.8,233.2,125.8,232.6 M128.9,224.8h1.4c0.6,0,1.1-0.1,1.4-0.4
			c0.3-0.3,0.5-0.7,0.5-1.1c0-1-0.6-1.5-1.9-1.5h-1.5V224.8z M128.9,230.8h2c0.6,0,1.1-0.1,1.4-0.4c0.3-0.3,0.5-0.7,0.5-1.2
			c0-1.1-0.7-1.6-2.2-1.6h-1.7V230.8z"/>
		<path class="st0" d="M140.9,231.8c0-0.3,0.2-0.7,0.5-1.2c0.3-0.5,0.6-0.7,0.8-0.7c0.1,0,0.3,0.1,0.5,0.2c0.8,0.5,1.7,0.7,2.5,0.7
			c1.3,0,1.9-0.5,1.9-1.5c0-0.4-0.2-0.8-0.6-1.1c-0.4-0.3-0.9-0.6-1.5-0.8c-0.6-0.2-1.2-0.5-1.7-0.8c-0.6-0.3-1.1-0.7-1.5-1.4
			c-0.4-0.6-0.6-1.4-0.6-2.3c0-0.9,0.2-1.7,0.7-2.4c0.9-1.2,2.3-1.8,4.1-1.8c1,0,1.9,0.2,2.6,0.5c0.7,0.3,1.1,0.6,1.1,1
			c0,0.3-0.1,0.7-0.4,1.1c-0.3,0.4-0.5,0.7-0.7,0.7c-0.1,0-0.2,0-0.4-0.1c-0.5-0.2-1.2-0.4-1.9-0.4c-0.7,0-1.2,0.1-1.5,0.4
			c-0.3,0.2-0.4,0.6-0.4,0.9c0,0.4,0.2,0.7,0.6,1c0.4,0.3,0.9,0.5,1.5,0.8c0.6,0.2,1.2,0.5,1.7,0.8c0.6,0.3,1.1,0.7,1.5,1.4
			c0.4,0.6,0.6,1.4,0.6,2.2c0,0.9-0.1,1.6-0.4,2.2c-0.3,0.6-0.6,1.1-1.1,1.4c-0.9,0.7-2,1-3.3,1c-1.3,0-2.4-0.2-3.3-0.6
			C141.3,232.6,140.9,232.2,140.9,231.8"/>
		<path class="st0" d="M155.9,234.3h1v-14.7h-1c-0.4,0-0.6-0.3-0.6-0.8v-0.3c0-0.5,0.2-0.8,0.6-0.8h2.6c0.5,0,0.8,0.3,0.8,0.8v17
			c0,0.5-0.3,0.8-0.8,0.8h-2.6c-0.4,0-0.6-0.3-0.6-0.8v-0.3C155.3,234.6,155.5,234.3,155.9,234.3"/>
	</g>
	<g>
		<path class="st0" d="M91,68.2l31.5-31.5l31.5,31.5l18.4-18.4L122.4,0L72.6,49.8L91,68.2z M159.2,49.8l-5.3,5.3l-31.5-31.5L91,55.2
			l-5.3-5.3L122.4,13L159.2,49.8z"/>
		<polygon class="st0" points="117.4,105.9 117.4,95 96.4,73.8 102.8,67.3 117.4,82 117.4,57 127.4,57 127.4,82 141.9,67.3 
			148.6,73.8 127.4,95 127.4,105.9 185.7,47.4 192.2,53.9 172.4,73.6 182.5,83.8 176,90.3 166,80.1 127.4,118.9 127.4,141 
			117.4,141 117.4,118.9 78.8,80.1 68.7,90.3 62.3,83.8 72.5,73.6 52.8,53.9 59.1,47.4 		"/>
	</g>
</g>
</svg>
