<?xml version="1.0" encoding="utf-8"?>
<!-- Generator: Adobe Illustrator 19.1.1, SVG Export Plug-In . SVG Version: 6.00 Build 0)  -->
<svg version="1.1" id="Layer_1" xmlns="http://www.w3.org/2000/svg" xmlns:xlink="http://www.w3.org/1999/xlink" x="0px" y="0px"
	 viewBox="0 0 50 50" style="enable-background:new 0 0 50 50;" xml:space="preserve">
<style type="text/css">
	.st0{fill:#FFFFFF;}
</style>
<g>
	<path class="st0" d="M41,17H17c-0.3,0-0.5,0.1-0.7,0.3l-7.2,7c-0.2,0.2-0.3,0.4-0.3,0.7s0.1,0.5,0.3,0.7l7.2,7
		c0.2,0.2,0.4,0.3,0.7,0.3h24c0.6,0,1-0.4,1-1V18C42,17.4,41.6,17,41,17z M40,31H17.4l-6.2-6l6.2-6H40V31z"/>
	<path class="st0" d="M29.2,28.5c0.2,0.2,0.5,0.3,0.7,0.3s0.5-0.1,0.7-0.3l2.1-2.1l2.1,2.1c0.2,0.2,0.5,0.3,0.7,0.3s0.5-0.1,0.7-0.3
		c0.4-0.4,0.4-1,0-1.4L34,25l2.1-2.1c0.4-0.4,0.4-1,0-1.4s-1-0.4-1.4,0l-2.1,2.1l-2.1-2.1c-0.4-0.4-1-0.4-1.4,0s-0.4,1,0,1.4
		l2.1,2.1l-2.1,2.1C28.8,27.4,28.8,28.1,29.2,28.5z"/>
</g>
</svg>
