<?xml version="1.0" encoding="utf-8"?>
<!-- Generator: Adobe Illustrator 19.1.1, SVG Export Plug-In . SVG Version: 6.00 Build 0)  -->
<svg version="1.1" id="Layer_1" xmlns="http://www.w3.org/2000/svg" xmlns:xlink="http://www.w3.org/1999/xlink" x="0px" y="0px"
	 viewBox="-453 261 52 40" style="enable-background:new -453 261 52 40;" xml:space="preserve">
<style type="text/css">
	.st0{fill:#FFFFFF;}
</style>
<path class="st0" d="M-407,261h-40c-3.3,0-6,2.7-6,6v28c0,3.3,2.7,6,6,6h40c3.3,0,6-2.7,6-6v-28C-401,263.7-403.7,261-407,261z
	 M-447,263h40c2.2,0,4,1.8,4,4v2h-48v-2C-451,264.8-449.2,263-447,263z M-407,299h-40c-2.2,0-4-1.8-4-4v-24h48v24
	C-403,297.2-404.8,299-407,299z"/>
<g>
	<rect x="-448" y="274" class="st0" width="6" height="6"/>
</g>
<g>
	<rect x="-439" y="274" class="st0" width="6" height="12"/>
</g>
<g>
	<rect x="-439" y="289" class="st0" width="6" height="6"/>
</g>
<g>
	<rect x="-421" y="274" class="st0" width="6" height="6"/>
</g>
<g>
	<rect x="-430" y="280" class="st0" width="6" height="6"/>
</g>
<g>
	<rect x="-421" y="283" class="st0" width="6" height="12"/>
</g>
<g>
	<rect x="-412" y="274" class="st0" width="6" height="6"/>
</g>
</svg>
