<?xml version="1.0" encoding="utf-8"?>
<!-- Generator: Adobe Illustrator 19.1.1, SVG Export Plug-In . SVG Version: 6.00 Build 0)  -->
<svg version="1.1" id="Layer_1" xmlns="http://www.w3.org/2000/svg" xmlns:xlink="http://www.w3.org/1999/xlink" x="0px" y="0px"
	 viewBox="-453 261 52 40" style="enable-background:new -453 261 52 40;" xml:space="preserve">
<style type="text/css">
	.st0{display:none;}
	.st1{display:inline;}
	.st2{fill:#FFFFFF;}
</style>
<g id="max_width__x2F__height" class="st0">
	<path class="st1" d="M-636,554v498h-498V554H-636 M-635,553h-500v500h500V553L-635,553z"/>
</g>
<g>
	<path class="st2" d="M-890.3,536c-2.1,0-3.8,1.7-3.8,3.8s1.7,3.8,3.8,3.8c1,0,1.9-0.4,2.7-1.1c0.7-0.7,1.1-1.7,1.1-2.7
		C-886.5,537.7-888.2,536-890.3,536z M-889.1,541.1c-0.3,0.3-0.7,0.5-1.2,0.5c-1,0-1.8-0.8-1.8-1.8s0.8-1.8,1.8-1.8
		c0.9,0,1.7,0.8,1.7,1.9C-888.6,540.3-888.8,540.8-889.1,541.1z"/>
	<path class="st2" d="M-869.5,536c-2.1,0-3.8,1.7-3.8,3.8s1.7,3.8,3.8,3.8c2.1,0,3.8-1.7,3.8-3.8S-867.4,536-869.5,536z
		 M-869.5,541.6c-1,0-1.8-0.8-1.8-1.8s0.8-1.8,1.8-1.8s1.8,0.8,1.8,1.8S-868.5,541.6-869.5,541.6z"/>
	<path class="st2" d="M-854,550l-0.2-2.1c-0.6-7-4.9-13.3-11.6-17l3.1-4.5c0.9-1.3,0.6-3-0.7-3.9c-0.5-0.3-1-0.5-1.5-0.5
		c-0.9,0-1.8,0.5-2.3,1.3l-3.7,5.3c-2.9-1-6-1.4-9.1-1.4c-3.2,0-6.2,0.5-9.1,1.4l-3.7-5.3c-0.5-0.8-1.3-1.3-2.3-1.3
		c-0.5,0-1.1,0.2-1.5,0.5c-1.2,0.9-1.5,2.6-0.7,3.9l3.1,4.5c-6.7,3.8-11,10-11.6,17l-0.2,2.1h0v10v2h2h48h2v-2L-854,550L-854,550z
		 M-891.2,531.5l-4.4-6.3c-0.3-0.4-0.2-0.9,0.1-1.1c0.2-0.1,0.3-0.1,0.4-0.1c0.3,0,0.5,0.1,0.7,0.4l4.6,6.5c3-1.2,6.4-1.8,9.9-1.8
		s6.9,0.7,9.9,1.8l4.6-6.5c0.2-0.2,0.4-0.4,0.7-0.4c0.1,0,0.3,0,0.4,0.1c0.3,0.2,0.4,0.7,0.1,1.1l-4.4,6.3c7,3.3,11.9,9.3,12.5,16.5
		h-47.6C-903.1,540.9-898.2,534.7-891.2,531.5z M-856,560h-48v-9.9h0.2h47.6h0.2V560z"/>
</g>
</svg>
