<?xml version="1.0" encoding="utf-8"?>
<!-- Generator: Adobe Illustrator 19.1.1, SVG Export Plug-In . SVG Version: 6.00 Build 0)  -->
<svg version="1.1" id="Layer_1" xmlns="http://www.w3.org/2000/svg" xmlns:xlink="http://www.w3.org/1999/xlink" x="0px" y="0px"
	 viewBox="0 0 21.5 35.2" style="enable-background:new 0 0 21.5 35.2;" xml:space="preserve">
<style type="text/css">
	.st0{fill:#F2F2F2;}
</style>
<g>
	<path class="st0" d="M10.8,0C4.8,0,0,4.7,0,10.6C0,18.5,5.1,35,10.8,35c5.7,0,10.8-16.5,10.8-24.4C21.5,4.7,16.7,0,10.8,0z
		 M10.8,33C7.4,33,2,19.5,2,10.6C2,6.7,5.9,2,10.8,2c4.8,0,8.8,4.7,8.8,8.6C19.5,19.5,14.1,33,10.8,33z"/>
	<path class="st0" d="M10.8,4.7c-3.5,0-6.3,2.8-6.3,6.2s2.8,6.2,6.3,6.2c3.5,0,6.3-2.8,6.3-6.2S14.3,4.7,10.8,4.7z M10.8,15.2
		c-2.4,0-4.3-1.9-4.3-4.3s1.9-4.3,4.3-4.3s4.3,1.9,4.3,4.3S13.1,15.2,10.8,15.2z"/>
</g>
</svg>
