<?xml version="1.0" encoding="utf-8"?>
<!-- Generator: Adobe Illustrator 19.1.1, SVG Export Plug-In . SVG Version: 6.00 Build 0)  -->
<svg version="1.1" id="Layer_1" xmlns="http://www.w3.org/2000/svg" xmlns:xlink="http://www.w3.org/1999/xlink" x="0px" y="0px"
	 viewBox="-229 237 52 40" style="enable-background:new -229 237 52 40;" xml:space="preserve">
<style type="text/css">
	.st0{display:none;}
	.st1{display:inline;}
	.st2{fill:#FFFFFF;}
</style>
<g>
	<path class="st2" d="M-213.3,251c-2.1,0-3.8,1.7-3.8,3.8s1.7,3.8,3.8,3.8c1,0,1.9-0.4,2.7-1.1c0.7-0.7,1.1-1.7,1.1-2.7
		C-209.5,252.7-211.2,251-213.3,251z M-212.1,256.1c-0.3,0.3-0.7,0.5-1.2,0.5c-1,0-1.8-0.8-1.8-1.8s0.8-1.8,1.8-1.8
		c0.9,0,1.7,0.8,1.7,1.9C-211.6,255.3-211.8,255.8-212.1,256.1z"/>
	<path class="st2" d="M-192.5,251c-2.1,0-3.8,1.7-3.8,3.8s1.7,3.8,3.8,3.8s3.8-1.7,3.8-3.8S-190.4,251-192.5,251z M-192.5,256.6
		c-1,0-1.8-0.8-1.8-1.8s0.8-1.8,1.8-1.8s1.8,0.8,1.8,1.8S-191.5,256.6-192.5,256.6z"/>
	<path class="st2" d="M-177,265l-0.2-2.1c-0.6-7-4.9-13.3-11.6-17l3.1-4.5c0.9-1.3,0.6-3-0.7-3.9c-0.5-0.3-1-0.5-1.5-0.5
		c-0.9,0-1.8,0.5-2.3,1.3l-3.7,5.3c-2.9-1-6-1.4-9.1-1.4c-3.2,0-6.2,0.5-9.1,1.4l-3.7-5.3c-0.5-0.8-1.3-1.3-2.3-1.3
		c-0.5,0-1.1,0.2-1.5,0.5c-1.2,0.9-1.5,2.6-0.7,3.9l3.1,4.5c-6.7,3.8-11,10-11.6,17l-0.2,2.1l0,0v10v2h2h48h2v-2V265L-177,265z
		 M-214.2,246.5l-4.4-6.3c-0.3-0.4-0.2-0.9,0.1-1.1c0.2-0.1,0.3-0.1,0.4-0.1c0.3,0,0.5,0.1,0.7,0.4l4.6,6.5c3-1.2,6.4-1.8,9.9-1.8
		s6.9,0.7,9.9,1.8l4.6-6.5c0.2-0.2,0.4-0.4,0.7-0.4c0.1,0,0.3,0,0.4,0.1c0.3,0.2,0.4,0.7,0.1,1.1l-4.4,6.3c7,3.3,11.9,9.3,12.5,16.5
		h-47.6C-226.1,255.9-221.2,249.7-214.2,246.5z M-179,275h-48v-9.9h0.2h47.6h0.2V275z"/>
</g>
</svg>
