<?xml version="1.0" encoding="utf-8"?>
<!-- Generator: Adobe Illustrator 19.1.1, SVG Export Plug-In . SVG Version: 6.00 Build 0)  -->
<svg version="1.1" id="Layer_1" xmlns="http://www.w3.org/2000/svg" xmlns:xlink="http://www.w3.org/1999/xlink" x="0px" y="0px"
	 viewBox="-453 261 52 40" style="enable-background:new -453 261 52 40;" xml:space="preserve">
<style type="text/css">
	.st0{display:none;}
	.st1{display:inline;}
	.st2{fill:#FFFFFF;}
</style>
<g id="max_width__x2F__height" class="st0">
	<path class="st1" d="M-183,293v498h-498V293H-183 M-182,292h-500v500h500V292L-182,292z"/>
</g>
<path class="st2" d="M-442.1,263c0.3,0,0.5,0.1,0.7,0.4l4.6,6.5c3-1.2,6.4-1.8,9.9-1.8s6.9,0.7,9.9,1.8l4.6-6.5
	c0.2-0.2,0.4-0.4,0.7-0.4c0.1,0,0.3,0,0.4,0.1c0.3,0.2,0.4,0.7,0.1,1.1l-4.4,6.3c7,3.3,11.9,9.3,12.5,16.5h-47.6
	c0.6-7.1,5.5-13.3,12.5-16.5l-4.4-6.3c-0.3-0.4-0.2-0.9,0.1-1.1C-442.3,263-442.2,263-442.1,263 M-442.1,261L-442.1,261
	c-0.5,0-1.1,0.2-1.5,0.5c-1.2,0.9-1.5,2.6-0.7,3.9l3.1,4.5c-6.7,3.8-11,10-11.6,17l-0.2,2.2h2.2h47.6h2.2l-0.2-2.2
	c-0.6-7-4.9-13.3-11.6-17l3.1-4.5c0.9-1.3,0.6-3-0.7-3.9c-0.5-0.3-1-0.5-1.5-0.5c-0.9,0-1.8,0.5-2.3,1.3l-3.7,5.3
	c-2.9-1-6-1.4-9.1-1.4c-3.2,0-6.2,0.5-9.1,1.4l-3.7-5.3C-440.3,261.5-441.1,261-442.1,261L-442.1,261L-442.1,261z"/>
<g>
	<path class="st2" d="M-437.3,282.6c-2.1,0-3.8-1.7-3.8-3.8c0-2.1,1.7-3.8,3.8-3.8c2.1,0,3.8,1.7,3.8,3.8c0,1-0.4,2-1.1,2.7
		C-435.4,282.2-436.3,282.6-437.3,282.6z M-437.3,277c-1,0-1.8,0.8-1.8,1.8s0.8,1.8,1.8,1.8c0.5,0,0.9-0.2,1.2-0.5
		c0.3-0.3,0.5-0.8,0.5-1.2C-435.6,277.8-436.4,277-437.3,277z"/>
</g>
<g>
	<path class="st2" d="M-416.5,282.6c-2.1,0-3.8-1.7-3.8-3.8c0-2.1,1.7-3.8,3.8-3.8c2.1,0,3.8,1.7,3.8,3.8
		C-412.7,280.9-414.4,282.6-416.5,282.6z M-416.5,277c-1,0-1.8,0.8-1.8,1.8s0.8,1.8,1.8,1.8s1.8-0.8,1.8-1.8S-415.5,277-416.5,277z"
		/>
</g>
<polygon class="st2" points="-403,289 -403,299 -451,299 -451,289 -453,289 -453,299 -453,301 -451,301 -403,301 -401,301 -401,299 
	-401,289 "/>
</svg>
