<?xml version="1.0" encoding="utf-8"?>
<!-- Generator: Adobe Illustrator 19.1.1, SVG Export Plug-In . SVG Version: 6.00 Build 0)  -->
<svg version="1.1" id="Layer_1" xmlns="http://www.w3.org/2000/svg" xmlns:xlink="http://www.w3.org/1999/xlink" x="0px" y="0px"
	 viewBox="0 0 46 35.2" style="enable-background:new 0 0 46 35.2;" xml:space="preserve">
<style type="text/css">
	.st0{fill:#F2F2F2;}
</style>
<g>
	<g>
		<path class="st0" d="M32,35.2H14v-1c0-10,1.6-16.4,4.9-20.3l0.5-0.6l0.7,0.3c0.4,0.2,1.6,0.3,2.7,0.3c0.8,0,2.2-0.2,2.7-0.4
			l0.7-0.3l0.7,0.5C30,17.2,32,24.6,32,34.2V35.2z M16.1,33.2h13.4c-0.1-8-1.5-14.5-3.9-17.6c-0.9,0.2-2.1,0.4-2.8,0.4
			c-0.6,0-1.8,0-2.8-0.3C17.5,19.2,16.2,24.7,16.1,33.2z"/>
	</g>
	<g>
		<path class="st0" d="M22.8,12.3c-3.4,0-6.2-2.8-6.2-6.2c0-3.4,2.8-6.2,6.2-6.2C26.2,0,29,2.8,29,6.2C29,9.5,26.2,12.3,22.8,12.3z
			 M22.8,2c-2.3,0-4.2,1.9-4.2,4.2s1.9,4.2,4.2,4.2c2.3,0,4.2-1.9,4.2-4.2S25.1,2,22.8,2z"/>
	</g>
	<g>
		<path class="st0" d="M38.3,13c-3.1,0-5.6-2.5-5.6-5.6s2.5-5.6,5.6-5.6c3.1,0,5.6,2.5,5.6,5.6S41.4,13,38.3,13z M38.3,3.8
			c-2,0-3.6,1.6-3.6,3.6s1.6,3.6,3.6,3.6c2,0,3.6-1.6,3.6-3.6S40.3,3.8,38.3,3.8z"/>
	</g>
	<g>
		<path class="st0" d="M46,32.2H32.8l0-1c-0.1-2.6-0.4-5-1-7.3l0-0.2l0-0.2c0.6-4.4,1.7-7.5,3.4-9.6l0.5-0.6l0.7,0.3
			c0.4,0.2,1.6,0.4,2.2,0.4c1.5,0,2-0.1,2.1-0.2l0.7-0.3l0.6,0.5c2.9,3.2,4.1,10.9,4.1,17.1V32.2z M34.7,30.2h9.1
			c-0.1-6.4-1.3-11.8-3.1-14.3c-0.5,0.1-1.2,0.2-2.2,0.2c-0.6,0-1.5-0.1-2.3-0.3c-1.3,1.7-2.1,4.3-2.6,7.8
			C34.2,25.8,34.5,27.9,34.7,30.2z"/>
	</g>
	<g>
		<path class="st0" d="M7.1,13C4,13,1.5,10.5,1.5,7.4S4,1.8,7.1,1.8s5.6,2.5,5.6,5.6S10.2,13,7.1,13z M7.1,3.8c-2,0-3.6,1.6-3.6,3.6
			S5.1,11,7.1,11s3.6-1.6,3.6-3.6S9.1,3.8,7.1,3.8z"/>
	</g>
	<g>
		<path class="st0" d="M12.7,32.2H0v-1c0-6.1,0.9-13.9,3.8-17.1l0.4-0.5l0.6,0.3c0.2,0.1,0.6,0.2,2.1,0.2c0.7,0,1.8-0.2,2.2-0.4
			l0.7-0.3l0.5,0.6c1.8,2.1,2.9,5.1,3.4,9.6l0,0.2l0,0.2c-0.6,2.4-0.9,4.8-1,7.3L12.7,32.2z M1.6,30.2h9.1c0.1-2.3,0.5-4.4,1-6.6
			c-0.5-3.6-1.3-6.1-2.6-7.8c-0.8,0.2-1.7,0.3-2.3,0.3c-0.9,0-1.6,0-2.2-0.2C2.9,18.4,1.7,23.8,1.6,30.2z"/>
	</g>
</g>
</svg>
