<?xml version="1.0" encoding="utf-8"?>
<!-- Generator: Adobe Illustrator 19.1.1, SVG Export Plug-In . SVG Version: 6.00 Build 0)  -->
<svg version="1.1" id="Layer_1" xmlns="http://www.w3.org/2000/svg" xmlns:xlink="http://www.w3.org/1999/xlink" x="0px" y="0px"
	 viewBox="-453 261 52 40" style="enable-background:new -453 261 52 40;" xml:space="preserve">
<style type="text/css">
	.st0{fill:#FFFFFF;}
</style>
<g>
	<path class="st0" d="M-407,301h-40c-3.3,0-6-2.7-6-6v-28c0-3.3,2.7-6,6-6h40c3.3,0,6,2.7,6,6v28C-401,298.3-403.7,301-407,301z
		 M-447,263c-2.2,0-4,1.8-4,4v28c0,2.2,1.8,4,4,4h40c2.2,0,4-1.8,4-4v-28c0-2.2-1.8-4-4-4H-447z"/>
</g>
<g>
	<rect x="-451" y="270" class="st0" width="49" height="2"/>
</g>
<g>
	<rect x="-428" y="262" class="st0" width="2" height="37"/>
</g>
<g>
	<rect x="-415" y="262" class="st0" width="2" height="37"/>
</g>
<g>
	<rect x="-441" y="262" class="st0" width="2" height="37"/>
</g>
<g>
	<rect x="-451" y="280" class="st0" width="49" height="2"/>
</g>
<g>
	<rect x="-451" y="290" class="st0" width="49" height="2"/>
</g>
</svg>
