<?xml version="1.0" encoding="utf-8"?>
<!-- Generator: Adobe Illustrator 19.1.1, SVG Export Plug-In . SVG Version: 6.00 Build 0)  -->
<svg version="1.1" id="Layer_1" xmlns="http://www.w3.org/2000/svg" xmlns:xlink="http://www.w3.org/1999/xlink" x="0px" y="0px"
	 viewBox="0 0 18 35.2" style="enable-background:new 0 0 18 35.2;" xml:space="preserve">
<style type="text/css">
	.st0{fill:#F2F2F2;}
</style>
<g>
	<path class="st0" d="M13,15.2l-0.4-0.5L12,15c-0.6,0.3-2,0.4-2.9,0.4c-1,0-2.4-0.1-2.9-0.4l-0.7-0.3L5,15.3C1.4,19.5,0,24.8,0,34
		v1.2h18V34C18,25,16.4,18.9,13,15.2z M2,33.2c0.1-8,1.3-12.4,4.1-16c1.2,0.3,2.8,0.3,3,0.3c0.7,0,2-0.1,3-0.3
		c2.7,3.2,4,9.1,4.1,16.1H2z"/>
	<path class="st0" d="M9.1,14.2c4,0,7.2-3.2,7.2-7.1c0-3.9-3.2-7.1-7.2-7.1C5.2,0,2,3.2,2,7.1C2,11,5.2,14.2,9.1,14.2z M9.1,2
		c2.8,0,5.2,2.3,5.2,5.1s-2.3,5.1-5.2,5.1S4,9.9,4,7.1S6.3,2,9.1,2z"/>
</g>
</svg>
