<?xml version="1.0" encoding="utf-8"?>
<!-- Generator: Adobe Illustrator 19.1.1, SVG Export Plug-In . SVG Version: 6.00 Build 0)  -->
<svg version="1.1" id="Layer_1" xmlns="http://www.w3.org/2000/svg" xmlns:xlink="http://www.w3.org/1999/xlink" x="0px" y="0px"
	 viewBox="-229 31 52 40" style="enable-background:new -229 31 52 40;" xml:space="preserve">
<style type="text/css">
	.st0{display:none;}
	.st1{display:inline;}
	.st2{fill:#FFFFFF;}
</style>
<g id="max_width__x2F__height" class="st0">
	<path class="st1" d="M270,32v498h-498V32H270 M271,31h-500v500h500V31L271,31z"/>
</g>
<path class="st2" d="M-218.2,32c0.3,0,0.5,0.1,0.7,0.4l4.6,6.6c3-1.2,6.4-1.8,9.9-1.8s6.9,0.7,9.9,1.8l4.6-6.6
	c0.2-0.2,0.4-0.4,0.7-0.4c0.1,0,0.3,0,0.4,0.1c0.3,0.2,0.4,0.7,0.1,1.1l-4.4,6.4c7,3.3,11.9,9.4,12.5,16.7h-47.7
	c0.6-7.2,5.5-13.4,12.5-16.7l-4.4-6.4c-0.3-0.4-0.2-0.9,0.1-1.1C-218.4,32-218.3,32-218.2,32 M-218.2,30
	C-218.2,30-218.2,30-218.2,30c-0.5,0-1.1,0.2-1.5,0.5c-1.2,0.9-1.5,2.6-0.7,3.9l3.1,4.5c-6.7,3.8-11,10.1-11.6,17.2l-0.2,2.2h2.2
	h47.7h2.2l-0.2-2.2c-0.6-7.1-4.9-13.4-11.6-17.2l3.1-4.5c0.9-1.3,0.6-3-0.7-3.9c-0.5-0.3-1-0.5-1.5-0.5c-0.9,0-1.8,0.5-2.3,1.3
	l-3.7,5.4c-2.9-1-6-1.4-9.1-1.4c-3.2,0-6.2,0.5-9.1,1.4l-3.7-5.4C-216.4,30.5-217.2,30-218.2,30L-218.2,30L-218.2,30z"/>
<g>
	<path class="st2" d="M-213.4,51.6c-2.1,0-3.8-1.7-3.8-3.8s1.7-3.8,3.8-3.8c2.1,0,3.8,1.7,3.8,3.8c0,1-0.4,2-1.1,2.7
		C-211.5,51.2-212.4,51.6-213.4,51.6z M-213.4,46c-1,0-1.8,0.8-1.8,1.8s0.8,1.8,1.8,1.8c0.5,0,0.9-0.2,1.2-0.5
		c0.3-0.3,0.5-0.8,0.5-1.2C-211.7,46.8-212.5,46-213.4,46z"/>
</g>
<g>
	<path class="st2" d="M-192.6,51.6c-2.1,0-3.8-1.7-3.8-3.8s1.7-3.8,3.8-3.8c2.1,0,3.8,1.7,3.8,3.8S-190.5,51.6-192.6,51.6z
		 M-192.6,46c-1,0-1.8,0.8-1.8,1.8s0.8,1.8,1.8,1.8c1,0,1.8-0.8,1.8-1.8S-191.6,46-192.6,46z"/>
</g>
<g>
	<path class="st2" d="M-177,71h-52V61h52V71z M-227,69h48v-6h-48V69z"/>
</g>
</svg>
