<?xml version="1.0" encoding="utf-8"?>
<!-- Generator: Adobe Illustrator 19.1.1, SVG Export Plug-In . SVG Version: 6.00 Build 0)  -->
<svg version="1.1" id="Layer_1" xmlns="http://www.w3.org/2000/svg" xmlns:xlink="http://www.w3.org/1999/xlink" x="0px" y="0px"
	 viewBox="32 -232 1024 1024" style="enable-background:new 32 -232 1024 1024;" xml:space="preserve">
<style type="text/css">
	.st0{fill:#FFFFFF;}
</style>
<g>
	<path class="st0" d="M870.6,51.5L575-122.5c-19.1-11.3-42.9-11.3-62,0L217.4,51.5c-19,11.2-30.9,32.1-30.9,54.4v348.1
		c0,22.4,11.8,43.2,30.9,54.4L513,682.5c9.6,5.6,20.3,8.4,31,8.4c10.7,0,21.4-2.8,31-8.4l295.6-174.1c19-11.2,30.9-32.1,30.9-54.4
		V105.9C901.5,83.6,889.7,62.7,870.6,51.5z M524.2-103.6c6.1-3.6,13-5.4,19.8-5.4c6.9,0,13.7,1.8,19.8,5.4L749.2,5.6L544,112.9
		L338.8,5.6L524.2-103.6z M879.5,454.1c0,14.6-7.7,28.2-20,35.5L563.8,663.6c-12.2,7.2-27.4,7.2-39.7,0L228.5,489.5
		c-12.3-7.3-20-20.9-20-35.5V105.9c0-14.6,7.7-28.2,20-35.5l87.9-51.8l227.5,119l227.5-119l87.9,51.8c12.3,7.3,20,20.9,20,35.5
		V454.1z"/>
	<path class="st0" d="M665,166.8v-66l-22,11.5v43.9c-13.1,9.7-57.1,39.1-106.5,39.1c-49.4,0-93.4-29.4-106.5-39.1v-51.5l-22-11.5
		v73.5l4,3.3c2.3,1.9,57.5,47.2,124.5,47.2c67,0,122.2-45.3,124.5-47.2L665,166.8z"/>
	<path class="st0" d="M404.3,261.2c-17.7,10.2-31.2,24.7-40.5,43.5c-9.4,18.8-14,40.7-14,65.7c0,40,9.7,70.8,29.1,92.5
		c19.4,21.7,47,32.5,82.8,32.5c24.7,0,45.4-3.2,62.3-9.5v-24.7c-21.7,6.1-41,9.1-57.9,9.1c-27.6,0-48.8-8.7-63.7-26
		C387.4,427,380,402.5,380,370.7c0-30.9,7.7-55.2,23.2-73s36.5-26.6,63.2-26.6c18.4,0,36.7,4.3,55.1,12.9l12-24.2
		c-19-9.3-41.3-13.9-66.7-13.9C442.7,245.9,422,251,404.3,261.2z"/>
	<polygon class="st0" points="597,465.2 597.5,455.7 598.6,425.5 598.6,310.1 572.7,310.1 572.7,492.1 607.1,492.1 705.4,337.4 
		704.5,358.9 704,380.9 704,492.1 729.8,492.1 729.8,310.1 695.4,310.1 	"/>
</g>
</svg>
