<?xml version="1.0" encoding="utf-8"?>
<!-- Generator: Adobe Illustrator 19.1.1, SVG Export Plug-In . SVG Version: 6.00 Build 0)  -->
<svg version="1.1" xmlns="http://www.w3.org/2000/svg" xmlns:xlink="http://www.w3.org/1999/xlink" x="0px" y="0px"
	 viewBox="0 0 1024 1024" style="enable-background:new 0 0 1024 1024;" xml:space="preserve">
<style type="text/css">
	.st0{fill:#F9F9F9;}
	.st1{fill:none;}
	.st2{opacity:0.8;}
	.st3{fill:#000000;}
	.st4{opacity:0.5;}
	.st5{clip-path:url(#SVGID_2_);fill:url(#SVGID_3_);}
</style>
<g id="Layer_1">
	<g>
		<path d="M512,918.5c-9.9,0-19.9-2.6-28.7-7.8L187.6,736.6C170,726.2,159,706.8,159,686.1V337.9c0-20.8,11-40.1,28.6-50.5
			l295.6-174.1c17.7-10.4,39.7-10.4,57.4,0l295.6,174.1c17.7,10.4,28.6,29.8,28.6,50.5v348.1c0,20.8-11,40.1-28.6,50.5L540.7,910.7
			C531.9,915.9,521.9,918.5,512,918.5z M512,118.5c-7.7,0-15.3,2-22.1,6L194.2,298.6c-13.7,8.1-22.2,23.1-22.2,39.3v348.1
			c0,16.2,8.5,31.3,22.2,39.3l295.6,174.1c13.6,8,30.6,8,44.3,0l295.6-174.1c13.7-8.1,22.2-23.1,22.2-39.3V337.9
			c0-16.2-8.5-31.3-22.2-39.3L534.1,124.5C527.3,120.5,519.7,118.5,512,118.5z"/>
	</g>
	<g>
		<path d="M446.3,494.4c-31.3,0-56,10-74,30.1c-18,20.1-27,47.5-27,82.4c0,35.7,8.5,63.3,25.5,83.1c17,19.7,41.2,29.6,72.8,29.6
			c21,0,40.2-2.7,57.8-8v15.4c-16.5,5.8-37.1,8.7-61.9,8.7c-35.1,0-62.7-11.3-82.9-34c-20.2-22.7-30.2-54.3-30.2-95
			c0-25.4,4.8-47.8,14.4-67.2c9.6-19.4,23.5-34.3,41.5-44.9c18.1-10.5,39.1-15.8,63-15.8c24.4,0,46.2,4.6,65.5,13.7l-7,15.7
			C485.5,498.9,466.4,494.4,446.3,494.4z"/>
		<path d="M556.8,546.3v134.3l-1,35L666,546.3h22.6v185.8h-16.2V598.6l0.7-35.9L562.8,732.1h-22V546.3H556.8z"/>
	</g>
	<g>
		<polygon points="512,364.6 281.4,244 287.4,232.5 512,350 736.6,232.5 742.6,244 		"/>
	</g>
	<path d="M623,322.1v52.4c-10.8,8.2-57.7,41.3-111,41.3c-53.3,0-100.2-33.1-111-41.3v-52.1l-13-6.8v65.1l2.3,1.9
		c2.3,1.9,56.3,46.2,121.7,46.2c65.4,0,119.4-44.3,121.7-46.2l2.3-1.9v-65.4L623,322.1z"/>
</g>
<g id="Layer_2">
</g>
</svg>
