<?xml version="1.0" encoding="utf-8"?>
<!-- Generator: Adobe Illustrator 19.1.1, SVG Export Plug-In . SVG Version: 6.00 Build 0)  -->
<svg version="1.1" xmlns="http://www.w3.org/2000/svg" xmlns:xlink="http://www.w3.org/1999/xlink" x="0px" y="0px"
	 viewBox="0 0 1024 1024" style="enable-background:new 0 0 1024 1024;" xml:space="preserve">
<style type="text/css">
	.st0{fill:#F9F9F9;}
	.st1{fill:none;}
	.st2{opacity:0.8;}
	.st3{fill:#1080CC;}
	.st4{opacity:0.5;}
	.st5{clip-path:url(#SVGID_2_);fill:url(#SVGID_3_);}
</style>
<g id="Layer_1">
</g>
<g id="Layer_2">
	
		<image style="display:none;overflow:visible;opacity:0.4;" width="4312" height="2868" xlink:href="../Downloads/photo-1451186859696-371d9477be93.jpg"  transform="matrix(0.4251 0 0 0.4251 -404.4162 -97.5273)">
	</image>
	<path class="st0" d="M832.3,730.7L536.7,904.8c-15.7,9.3-35.1,9.3-50.8,0L190.2,730.7c-15.7-9.3-25.4-26.4-25.4-44.9V337.7
		c0-18.5,9.7-35.7,25.4-44.9l295.6-174.1c15.7-9.3,35.1-9.3,50.8,0l295.6,174.1c15.7,9.3,25.4,26.4,25.4,44.9v348.1
		C857.8,704.3,848.1,721.5,832.3,730.7z"/>
	<line class="st1" x1="170.3" y1="310.8" x2="853.7" y2="713.2"/>
	<g class="st2">
		<path d="M428,503.4c-23.5,0-41.9,8.3-55.4,25c-13.4,16.6-20.2,39.6-20.2,68.9c0,30.6,6.5,53.8,19.4,69.6
			c12.9,15.7,31.6,23.6,56.1,23.6c10.6,0,20.8-1.1,30.8-3.2c9.9-2.1,20.2-4.8,30.9-8.1v35c-19.6,7.4-41.8,11.1-66.7,11.1
			c-36.6,0-64.7-11.1-84.3-33.2c-19.6-22.2-29.4-53.9-29.4-95.1c0-26,4.8-48.7,14.3-68.2c9.5-19.5,23.3-34.4,41.3-44.8
			c18-10.4,39.1-15.6,63.4-15.6c25.5,0,49.1,5.4,70.8,16.1l-14.7,34c-8.4-4-17.3-7.5-26.7-10.5C448.2,504.9,438.4,503.4,428,503.4z"
			/>
		<path d="M565.6,532.8v96.9c0,11.3-0.9,27.9-2.7,49.7l94.8-146.6h49v189h-38.6v-95.2c0-5.2,0.3-13.7,0.9-25.5
			c0.6-11.7,1.2-20.3,1.6-25.6l-94.5,146.3h-49v-189H565.6z"/>
	</g>
	<path class="st3" d="M643,246H381v123.4c0,0,59.9,50.7,131,50.7s131-50.7,131-50.7V246z"/>
	<path class="st0" d="M538,125.1c-16.1-9.5-36-9.5-52.1,0L279,247l233,121.9L745,247L538,125.1z"/>
	<path class="st3" d="M537.4,118.9c-15.7-9.3-35.1-9.3-50.8,0L284.4,238L512,357.1L739.6,238L537.4,118.9z"/>
	<g class="st4">
		<defs>
			<path id="SVGID_1_" class="st4" d="M833.1,731L537.4,905.1c-15.7,9.3-35.1,9.3-50.8,0L190.9,731c-15.7-9.3-25.4-26.4-25.4-44.9
				V337.9c0-18.5,9.7-35.7,25.4-44.9l295.6-174.1c15.7-9.3,35.1-9.3,50.8,0L833.1,293c15.7,9.3,25.4,26.4,25.4,44.9v348.1
				C858.5,704.6,848.8,721.7,833.1,731z"/>
		</defs>
		<clipPath id="SVGID_2_">
			<use xlink:href="#SVGID_1_"  style="overflow:visible;"/>
		</clipPath>
		<linearGradient id="SVGID_3_" gradientUnits="userSpaceOnUse" x1="112" y1="112" x2="912" y2="912">
			<stop  offset="0" style="stop-color:#FFFFFF;stop-opacity:0.3"/>
			<stop  offset="0.4844" style="stop-color:#949393;stop-opacity:0"/>
			<stop  offset="1" style="stop-color:#000000;stop-opacity:0.3"/>
		</linearGradient>
		<rect x="112" y="112" class="st5" width="800" height="800"/>
	</g>
	<rect x="62" y="62" class="st1" width="900" height="900"/>
</g>
</svg>
