<?xml version="1.0" encoding="utf-8"?>
<!-- Generator: Adobe Illustrator 19.1.1, SVG Export Plug-In . SVG Version: 6.00 Build 0)  -->
<svg version="1.1" id="Layer_1" xmlns="http://www.w3.org/2000/svg" xmlns:xlink="http://www.w3.org/1999/xlink" x="0px" y="0px"
	 viewBox="0 0 50 50" style="enable-background:new 0 0 50 50;" xml:space="preserve">
<style type="text/css">
	.st0{fill:#FFFFFF;}
</style>
<path class="st0" d="M38,17c-0.6,0-1,0.4-1,1v10H10.5l6.3-6.3c0.4-0.4,0.4-1,0-1.4s-1-0.4-1.4,0l-7.9,7.9c-0.4,0.4-0.4,1,0,1.4
	l8.1,8.1c0.2,0.2,0.5,0.3,0.7,0.3s0.5-0.1,0.7-0.3c0.4-0.4,0.4-1,0-1.4L10.6,30H38c0.6,0,1-0.4,1-1V18C39,17.4,38.6,17,38,17z"/>
</svg>
