<?xml version="1.0" encoding="utf-8"?>
<!-- Generator: Adobe Illustrator 19.1.1, SVG Export Plug-In . SVG Version: 6.00 Build 0)  -->
<svg version="1.1" id="Layer_1" xmlns="http://www.w3.org/2000/svg" xmlns:xlink="http://www.w3.org/1999/xlink" x="0px" y="0px"
	 viewBox="0 0 50 50" style="enable-background:new 0 0 50 50;" xml:space="preserve">
<style type="text/css">
	.st0{fill:#FFFFFF;}
</style>
<g>
	<path class="st0" d="M33.8,22.4l-6-6c0,0-0.1-0.1-0.1-0.1l-4-4c-0.4-0.4-1-0.4-1.4,0l-9.9,9.9c-0.4,0.4-0.4,1,0,1.4s1,0.4,1.4,0
		l4.2-4.2V40c0,0.6,0.4,1,1,1s1-0.4,1-1V17.4l3-3l3,3V40c0,0.6,0.4,1,1,1s1-0.4,1-1V19.4l4.4,4.4c0.2,0.2,0.5,0.3,0.7,0.3
		s0.5-0.1,0.7-0.3C34.2,23.4,34.2,22.8,33.8,22.4z"/>
</g>
</svg>
