<?xml version="1.0" encoding="utf-8"?>
<!-- Generator: Adobe Illustrator 19.1.1, SVG Export Plug-In . SVG Version: 6.00 Build 0)  -->
<svg version="1.1" id="Layer_1" xmlns="http://www.w3.org/2000/svg" xmlns:xlink="http://www.w3.org/1999/xlink" x="0px" y="0px"
	 viewBox="0 0 50 50" style="enable-background:new 0 0 50 50;" xml:space="preserve">
<style type="text/css">
	.st0{fill:#FFFFFF;}
</style>
<g>
	<path class="st0" d="M25,16.3c-0.4-0.4-1-0.4-1.4,0s-0.4,1,0,1.4l6.3,6.3H14c-0.6,0-1,0.4-1,1s0.4,1,1,1h15.7l-6.3,6.3
		c-0.4,0.4-0.4,1,0,1.4c0.2,0.2,0.5,0.3,0.7,0.3s0.5-0.1,0.7-0.3l8.1-8.1c0.4-0.4,0.4-1,0-1.4L25,16.3z"/>
	<path class="st0" d="M35,16c-0.6,0-1,0.4-1,1v16c0,0.6,0.4,1,1,1s1-0.4,1-1V17C36,16.4,35.6,16,35,16z"/>
</g>
</svg>
