<?xml version="1.0" encoding="utf-8"?>
<!-- Generator: Adobe Illustrator 19.1.1, SVG Export Plug-In . SVG Version: 6.00 Build 0)  -->
<svg version="1.1" id="Layer_1" xmlns="http://www.w3.org/2000/svg" xmlns:xlink="http://www.w3.org/1999/xlink" x="0px" y="0px"
	 viewBox="0 0 30 30" style="enable-background:new 0 0 30 30;" xml:space="preserve">
<style type="text/css">
	.st0{fill:#4D4D4D;}
</style>
<path class="st0" d="M15,0C6.7,0,0,6.7,0,15c0,8.3,6.7,15,15,15c3.1,0,6-0.9,8.5-2.6l-2.4-3.5c-1.8,1.2-3.9,1.9-6.1,1.9
	C9.1,25.7,4.3,20.9,4.3,15C4.3,9.1,9.1,4.3,15,4.3S25.7,9.1,25.7,15v1.1c0,0.9-0.2,2.5-1.6,2.5h-0.6c-0.4,0-1.3-0.8-1.3-1.2V15h0
	c0-4-3.3-7.3-7.3-7.3c-4,0-7.3,3.3-7.3,7.3s3.3,7.3,7.3,7.3c1.7,0,3.2-0.6,4.4-1.5c1.1,1.2,2.6,2.1,4.1,2.1h0.6
	c3.4,0,5.9-2.8,5.9-6.7V15C30,6.7,23.3,0,15,0z M15,18c-1.7,0-3-1.3-3-3c0-1.7,1.3-3,3-3c1.7,0,3,1.3,3,3C18,16.7,16.7,18,15,18z"/>
</svg>
