<?xml version="1.0" encoding="utf-8"?>
<!-- Generator: Adobe Illustrator 19.1.1, SVG Export Plug-In . SVG Version: 6.00 Build 0)  -->
<svg version="1.1" id="Layer_1" xmlns="http://www.w3.org/2000/svg" xmlns:xlink="http://www.w3.org/1999/xlink" x="0px" y="0px"
	 viewBox="-99 335 412 125.8" style="enable-background:new -99 335 412 125.8;" xml:space="preserve">
<style type="text/css">
	.st0{fill:#404449;}
</style>
<g>
	<g>
		<path class="st0" d="M-22.4,334.8h1.9h40.7c1,0,1.9,0.9,1.9,1.9v10.8c0,1-0.9,1.9-1.9,1.9H-7.1v12.1h22.4c1,0,1.9,0.9,1.9,1.9
			v10.8c0,1-0.9,1.9-1.9,1.9H-7.1v13.2h27.2c1,0,1.9,0.9,1.9,1.9v10.8c0,1-0.9,1.9-1.9,1.9h-40.7h-1.9
			C-22.4,403.7-22.4,334.8-22.4,334.8z"/>
		<path class="st0" d="M32.1,334.8H35h13c0.9,0,1.5,0.5,1.7,1l16.2,35.9h0.5l16.2-35.9c0.2-0.5,0.9-1,1.7-1h13h2.9l-32.1,68.5
			c-0.3,0.5-0.9,1-1.7,1h-1c-0.9,0-1.4-0.5-1.7-1L32.1,334.8z"/>
		<path class="st0" d="M172.5,335.5c0-1,0.9-1.7,1.9-1.7h2.4l39.1,37.6h0.2v-34.9c0-1,0.9-1.9,1.9-1.9h11.8c1,0,1.9,0.9,1.9,1.9
			v67.8h-1.9h-1.5c-0.3,0-1-0.3-1.2-0.5l-38.8-39h-0.2v36.6c0,1-0.9,1.9-1.9,1.9h-13.5L172.5,335.5z"/>
		<path class="st0" d="M130.5,334.8c-0.3-0.5-1-1.2-1.7-1.2h-1c-0.7,0-1.4,0.5-1.7,1.2l-31.8,68.5h2.9h10.8c1.9,0,3.1-1.2,3.6-2.4
			l5.3-12.1l22.9,0.2l5.6,12c0.9,1.9,1.7,2.4,3.4,2.4h10.9h2.9L130.5,334.8z M132.9,368.8l-4.4,7h-0.2h-0.2l-4.4-7v-0.2l4.4-7
			c0,0,0.2-0.2,0.3,0l4.4,7C132.9,368.8,132.9,368.8,132.9,368.8"/>
		<path class="st0" d="M280.7,334.8c-0.3-0.5-1-1.2-1.7-1.2h-1c-0.7,0-1.4,0.5-1.7,1.2l-31.6,68.5h2.9h10.8c1.9,0,3.1-1.2,3.6-2.4
			l5.3-12.1l22.9,0.2l5.6,12c0.9,1.9,1.7,2.4,3.4,2.4h10.9h2.9L280.7,334.8z M283.1,368.8l-4.4,7h-0.2h-0.2l-4.4-7v-0.2l4.4-7
			c0,0,0.2-0.2,0.3,0l4.4,7C283.3,368.8,283.3,368.8,283.1,368.8"/>
		<path class="st0" d="M-99,335h1.7h23.6c18.6,0,33.8,15,33.8,33.7c0,18.6-15.2,33.8-33.8,33.8h-23.6H-99V335z M-74.7,388.1
			c10.9,0,18.8-8.5,18.8-19.5s-7.9-19.5-18.8-19.5H-84v39H-74.7z"/>
		<path class="st0" d="M-99,459.4v-28.5c0-0.9,0.5-1.4,1.4-1.4h4.3c0.7,0,1,0.5,1,1.4v0.5c0,0.9-0.3,1.4-1,1.4h-1.7v24.8h1.7
			c0.7,0,1,0.5,1,1.4v0.5c0,0.9-0.3,1.4-1,1.4h-4.3C-98.5,460.8-99,460.3-99,459.4"/>
		<path class="st0" d="M-82.3,454.6v-21.7c0-0.7,0.7-1,2.1-1h1.2c1.4,0,2.1,0.3,2.1,1v18.6h7.7c0.7,0,1,0.5,1,1.7v1
			c0,1.2-0.3,1.7-1,1.7h-11.6C-81.7,456-82.3,455.5-82.3,454.6"/>
		<path class="st0" d="M-60.7,455.3c0-0.2,0-0.3,0.2-0.7l7.5-22.2c0.2-0.5,0.9-0.7,2.1-0.7h1.9c1.2,0,1.7,0.2,2.1,0.7l7.5,22.2
			c0,0.2,0.2,0.5,0.2,0.7c0,0.5-0.5,0.7-1.7,0.7h-1.5c-1.2,0-1.7-0.2-1.9-0.7l-1.4-4.3h-8.2l-1.4,4.3c-0.2,0.5-0.7,0.7-1.5,0.7h-1.4
			C-60,456.2-60.7,455.8-60.7,455.3 M-52.7,446.6h5.1l-2.1-6.2l-0.5-2.2h-0.2c-0.2,1-0.3,1.9-0.5,2.2L-52.7,446.6z"/>
		<path class="st0" d="M-31.2,454.6v-21.4c0-0.9,0.5-1.4,1.4-1.4h6.8c2.7,0,4.8,0.5,6.2,1.5c1.4,1,2.1,2.6,2.1,4.4
			c0,1.2-0.3,2.2-1,3.1c-0.7,1-1.5,1.7-2.7,2.1v0.2c1.4,0.3,2.6,1,3.4,2.1s1.4,2.2,1.4,3.6c0,2.2-0.7,3.9-2.2,5.1
			c-1.4,1.2-3.6,1.9-6.5,1.9h-7.3C-30.6,456-31.2,455.5-31.2,454.6 M-25.9,441.5h2.4c1,0,1.9-0.2,2.4-0.7c0.5-0.5,0.9-1,0.9-1.9
			c0-1.7-1-2.6-3.1-2.6h-2.4v5.1H-25.9z M-25.9,451.5h3.4c1,0,1.9-0.2,2.4-0.7c0.5-0.5,0.9-1.2,0.9-2.1c0-1.7-1.2-2.7-3.8-2.7h-2.9
			C-25.9,446.1-25.9,451.5-25.9,451.5z"/>
		<path class="st0" d="M-5.7,453.2c0-0.5,0.3-1.2,0.9-1.9s1-1.2,1.4-1.2c0.2,0,0.5,0.2,0.9,0.3c1.4,0.9,2.9,1.2,4.1,1.2
			c2.2,0,3.2-0.9,3.2-2.6c0-0.7-0.3-1.4-1-1.9c-0.7-0.5-1.5-1-2.6-1.4c-1-0.3-1.9-0.9-2.9-1.4c-1-0.5-1.9-1.2-2.6-2.2
			c-0.7-1-1-2.4-1-3.9c0-1.5,0.3-2.9,1.2-3.9c1.5-2.1,3.8-3.1,7-3.1c1.7,0,3.2,0.2,4.4,0.7c1.2,0.5,1.7,1,1.7,1.7
			c0,0.5-0.2,1.2-0.7,1.9c-0.5,0.7-0.9,1.2-1.2,1.2c-0.2,0-0.3,0-0.7-0.2c-0.9-0.3-2.1-0.7-3.2-0.7s-2.1,0.2-2.6,0.7
			c-0.5,0.3-0.7,0.9-0.7,1.5s0.3,1.2,1,1.7c0.7,0.5,1.5,0.9,2.6,1.2c1,0.3,1.9,0.9,2.9,1.4c1,0.5,1.9,1.2,2.6,2.2c0.7,1,1,2.2,1,3.8
			c0,1.4-0.2,2.7-0.7,3.8c-0.5,1-1,1.9-1.9,2.4c-1.5,1-3.4,1.7-5.6,1.7s-4.1-0.3-5.6-1C-4.8,454.6-5.7,453.9-5.7,453.2"/>
		<path class="st0" d="M19.6,457.5h1.7v-24.8h-1.7c-0.7,0-1-0.5-1-1.4v-0.5c0-0.9,0.3-1.4,1-1.4h4.3c0.9,0,1.4,0.5,1.4,1.4v28.5
			c0,0.9-0.5,1.4-1.4,1.4h-4.3c-0.7,0-1-0.5-1-1.4v-0.5C18.6,458,18.9,457.5,19.6,457.5"/>
	</g>
</g>
</svg>
