<?xml version="1.0" encoding="utf-8"?>
<!-- Generator: Adobe Illustrator 19.1.1, SVG Export Plug-In . SVG Version: 6.00 Build 0)  -->
<svg version="1.1" id="Layer_1" xmlns="http://www.w3.org/2000/svg" xmlns:xlink="http://www.w3.org/1999/xlink" x="0px" y="0px"
	 viewBox="0 0 441 110" style="enable-background:new 0 0 441 110;" xml:space="preserve">
<style type="text/css">
	.st0{fill:#404449;}
</style>
<g>
	<path class="st0" d="M189.8,38.6v13h-7.3V17.7h10c4.7,0,8.1,0.8,10.3,2.5c2.2,1.7,3.4,4.2,3.4,7.6c0,2-0.6,3.8-1.7,5.3
		c-1.1,1.6-2.7,2.8-4.7,3.6c5.2,7.6,8.5,12.5,10.1,14.7h-8.1l-8.2-13H189.8z M189.8,32.8h2.3c2.3,0,4-0.4,5.1-1.1
		c1.1-0.8,1.6-1.9,1.6-3.6c0-1.6-0.6-2.7-1.7-3.4c-1.1-0.7-2.8-1-5.2-1h-2.2V32.8z"/>
	<path class="st0" d="M229.9,51.6l-1.4-3.5h-0.2c-1.2,1.5-2.4,2.5-3.7,3.1c-1.3,0.6-2.9,0.9-5,0.9c-2.5,0-4.5-0.7-5.9-2.1
		c-1.4-1.4-2.2-3.4-2.2-6.1c0-2.7,1-4.8,2.9-6.1s4.9-2,8.8-2.2l4.5-0.1v-1.1c0-2.6-1.4-3.9-4.1-3.9c-2.1,0-4.6,0.6-7.4,1.9l-2.4-4.8
		c3-1.6,6.4-2.3,10-2.3c3.5,0,6.2,0.8,8.1,2.3c1.9,1.5,2.8,3.8,2.8,6.9v17.2H229.9z M227.8,39.6l-2.8,0.1c-2.1,0.1-3.6,0.4-4.6,1.1
		c-1,0.7-1.5,1.7-1.5,3.1c0,2,1.2,3,3.5,3c1.7,0,3-0.5,4-1.4c1-0.9,1.5-2.2,1.5-3.8V39.6z"/>
	<path class="st0" d="M252.6,52c-8.2,0-12.2-4.4-12.2-13.3c0-4.4,1.1-7.8,3.3-10.1c2.2-2.3,5.4-3.5,9.5-3.5c3,0,5.8,0.6,8.2,1.8
		l-2.1,5.5c-1.1-0.4-2.2-0.8-3.1-1.1c-1-0.3-1.9-0.4-2.9-0.4c-3.7,0-5.6,2.6-5.6,7.8c0,5.1,1.9,7.6,5.6,7.6c1.4,0,2.6-0.2,3.8-0.5
		c1.2-0.4,2.3-0.9,3.5-1.7v6c-1.2,0.7-2.3,1.2-3.5,1.5C255.8,51.9,254.4,52,252.6,52z M262.9,15.3v0.6c-1.3,1.3-2.5,2.6-3.6,3.9
		s-1.9,2.3-2.4,3.1h-8.4c-0.5-0.7-1.1-1.6-1.9-2.6c-0.8-1-2.2-2.5-4.1-4.4v-0.6h4.8c2.3,1.4,4.1,2.8,5.4,4.1
		c1.3-1.3,3.1-2.7,5.5-4.1H262.9z"/>
	<path class="st0" d="M284.5,51.6l-1-3.3h-0.4c-0.8,1.2-1.9,2.1-3.3,2.8s-3,1-4.8,1c-3.1,0-5.4-0.8-7-2.4c-1.6-1.6-2.3-4-2.3-7V25.7
		h7.1v15.1c0,1.9,0.3,3.3,1,4.2c0.7,0.9,1.7,1.4,3.2,1.4c2,0,3.4-0.7,4.3-2c0.9-1.3,1.3-3.5,1.3-6.6V25.7h7.1v25.9H284.5z"/>
	<path class="st0" d="M320.8,51.6h-7.1V36.5c0-1.9-0.3-3.3-1-4.2c-0.7-0.9-1.7-1.4-3.2-1.4c-2,0-3.4,0.7-4.3,2
		c-0.9,1.3-1.3,3.5-1.3,6.6v12.2h-7.1V25.7h5.5l1,3.3h0.4c0.8-1.3,1.9-2.2,3.3-2.8c1.4-0.6,3-1,4.8-1c3,0,5.4,0.8,6.9,2.4
		c1.6,1.6,2.4,4,2.4,7V51.6z"/>
	<path class="st0" d="M343.8,51.6l-1.4-3.5h-0.2c-1.2,1.5-2.4,2.5-3.7,3.1c-1.3,0.6-2.9,0.9-5,0.9c-2.5,0-4.5-0.7-5.9-2.1
		c-1.4-1.4-2.2-3.4-2.2-6.1c0-2.7,1-4.8,2.9-6.1s4.9-2,8.8-2.2l4.5-0.1v-1.1c0-2.6-1.4-3.9-4.1-3.9c-2.1,0-4.6,0.6-7.4,1.9l-2.4-4.8
		c3-1.6,6.4-2.3,10-2.3c3.5,0,6.2,0.8,8.1,2.3c1.9,1.5,2.8,3.8,2.8,6.9v17.2H343.8z M341.7,39.6l-2.8,0.1c-2.1,0.1-3.6,0.4-4.6,1.1
		c-1,0.7-1.5,1.7-1.5,3.1c0,2,1.2,3,3.5,3c1.7,0,3-0.5,4-1.4c1-0.9,1.5-2.2,1.5-3.8V39.6z"/>
	<path class="st0" d="M369.9,25.2c1,0,1.8,0.1,2.4,0.2l-0.5,6.6c-0.6-0.2-1.3-0.2-2.1-0.2c-2.3,0-4.1,0.6-5.3,1.7
		c-1.3,1.2-1.9,2.8-1.9,4.9v13.2h-7.1V25.7h5.4l1.1,4.4h0.4c0.8-1.5,1.9-2.6,3.3-3.5C366.8,25.7,368.3,25.2,369.9,25.2z"/>
	<path class="st0" d="M395.2,43.9c0,2.7-0.9,4.7-2.8,6.1S387.7,52,384,52c-1.9,0-3.5-0.1-4.9-0.4c-1.3-0.3-2.6-0.6-3.8-1.1v-5.8
		c1.3,0.6,2.8,1.1,4.5,1.6c1.7,0.4,3.1,0.6,4.4,0.6c2.6,0,3.9-0.7,3.9-2.2c0-0.6-0.2-1-0.5-1.4c-0.3-0.3-0.9-0.7-1.8-1.2
		c-0.8-0.4-2-1-3.4-1.5c-2-0.8-3.5-1.6-4.4-2.3c-0.9-0.7-1.6-1.5-2.1-2.4c-0.4-0.9-0.6-2-0.6-3.4c0-2.3,0.9-4.1,2.7-5.3
		c1.8-1.3,4.4-1.9,7.7-1.9c3.2,0,6.2,0.7,9.2,2l-2.2,5.1c-1.3-0.6-2.5-1-3.7-1.4s-2.3-0.5-3.5-0.5c-2.1,0-3.2,0.6-3.2,1.7
		c0,0.6,0.3,1.2,1,1.6s2.2,1.1,4.5,2.1c2,0.8,3.5,1.6,4.5,2.3s1.7,1.5,2.1,2.5C394.9,41.5,395.2,42.6,395.2,43.9z"/>
	<path class="st0" d="M407.1,37.5l3.1-3.9l7.3-7.9h8.1l-10.4,11.2l11,14.7h-8.3l-7.5-10.5l-3.1,2.4v8.1h-7.1v-36h7.1v16.1
		L407.1,37.5L407.1,37.5z"/>
	<path class="st0" d="M429.4,19c0-2.3,1.3-3.4,3.9-3.4s3.9,1.1,3.9,3.4c0,1.1-0.3,1.9-1,2.6c-0.6,0.6-1.6,0.9-2.9,0.9
		C430.7,22.5,429.4,21.3,429.4,19z M436.8,51.6h-7.1V25.7h7.1V51.6z"/>
	<path class="st0" d="M196.4,87.9h-6.2v20.6h-7.1V87.9h-3.9v-3.4l3.9-1.9v-1.9c0-2.9,0.7-5.1,2.2-6.5c1.5-1.4,3.8-2,7.1-2
		c2.5,0,4.7,0.4,6.6,1.1l-1.8,5.2c-1.4-0.4-2.8-0.7-4-0.7c-1,0-1.8,0.3-2.2,0.9c-0.5,0.6-0.7,1.4-0.7,2.3v1.6h6.2V87.9z"/>
	<path class="st0" d="M216.4,108.5L215,105h-0.2c-1.2,1.5-2.4,2.5-3.7,3.1c-1.3,0.6-2.9,0.9-5,0.9c-2.5,0-4.5-0.7-5.9-2.1
		c-1.4-1.4-2.2-3.4-2.2-6.1c0-2.7,1-4.8,2.9-6.1s4.9-2,8.8-2.2l4.5-0.1v-1.1c0-2.6-1.4-3.9-4.1-3.9c-2.1,0-4.6,0.6-7.4,1.9l-2.4-4.8
		c3-1.6,6.4-2.3,10-2.3c3.5,0,6.2,0.8,8.1,2.3c1.9,1.5,2.8,3.8,2.8,6.9v17.2H216.4z M214.2,96.5l-2.8,0.1c-2.1,0.1-3.6,0.4-4.6,1.1
		c-1,0.7-1.5,1.7-1.5,3.1c0,2,1.2,3,3.5,3c1.7,0,3-0.5,4-1.4c1-0.9,1.5-2.2,1.5-3.8V96.5z"/>
	<path class="st0" d="M234.7,94.4l3.1-3.9l7.3-7.9h8.1l-10.4,11.2l11,14.7h-8.3L238,98l-3.1,2.4v8.1h-7.1v-36h7.1v16.1L234.7,94.4
		L234.7,94.4z"/>
	<path class="st0" d="M275.6,108.5l-1-3.3h-0.4c-0.8,1.2-1.9,2.1-3.3,2.8s-3,1-4.8,1c-3.1,0-5.4-0.8-7-2.4c-1.6-1.6-2.3-4-2.3-7
		V82.6h7.1v15.1c0,1.9,0.3,3.3,1,4.2c0.7,0.9,1.7,1.4,3.2,1.4c2,0,3.4-0.7,4.3-2c0.9-1.3,1.3-3.5,1.3-6.6V82.6h7.1v25.9H275.6z"/>
	<path class="st0" d="M294.8,108.5h-7.1v-36h7.1V108.5z"/>
	<path class="st0" d="M312.6,103.3c1.3,0,2.8-0.3,4.5-0.8v5.3c-1.8,0.8-4,1.2-6.6,1.2c-2.9,0-4.9-0.7-6.2-2.1c-1.3-1.4-2-3.6-2-6.4
		V87.9h-3.4v-3l3.9-2.4l2.1-5.5h4.6v5.5h7.3v5.3h-7.3v12.5c0,1,0.3,1.7,0.9,2.2C310.9,103.1,311.6,103.3,312.6,103.3z"/>
	<path class="st0" d="M333.4,108.9c-4.2,0-7.5-1.1-9.9-3.4c-2.4-2.3-3.6-5.6-3.6-9.8c0-4.3,1.1-7.7,3.3-10.1
		c2.2-2.4,5.2-3.6,9.1-3.6c3.7,0,6.6,1,8.6,3.1c2.1,2.1,3.1,5,3.1,8.6v3.4h-16.9c0.1,2,0.7,3.6,1.8,4.7c1.1,1.1,2.7,1.7,4.7,1.7
		c1.6,0,3.1-0.2,4.5-0.5c1.4-0.3,2.9-0.8,4.4-1.6v5.5c-1.3,0.6-2.6,1.1-4,1.4C337.2,108.8,335.4,108.9,333.4,108.9z M332.4,87.1
		c-1.5,0-2.7,0.5-3.6,1.4c-0.9,0.9-1.4,2.3-1.5,4h10c0-1.7-0.5-3.1-1.4-4S333.9,87.1,332.4,87.1z"/>
	<path class="st0" d="M360.5,103.3c1.3,0,2.8-0.3,4.5-0.8v5.3c-1.8,0.8-4,1.2-6.6,1.2c-2.9,0-4.9-0.7-6.2-2.1s-2-3.6-2-6.4V87.9
		h-3.4v-3l3.9-2.4l2.1-5.5h4.6v5.5h7.3v5.3h-7.3v12.5c0,1,0.3,1.7,0.9,2.2C358.8,103.1,359.6,103.3,360.5,103.3z"/>
</g>
<g>
	<path class="st0" d="M6.6,81.1C14.3,66.6,19.7,60,19.7,60s-1.9-18.9-2.6-34.2C16.3,10.5,28.4,8.4,38,17.9s10.5,15.8,10.5,15.8
		l31.4-18.4c34.6-19.9,79.6-24.1,68,10.5c-11.6,34.6-73.3,71-73.3,71c68.9-49.1,32.3-56.5,13.1-52.6S59,57.4,59,57.4
		c10.9,23.1,5.2,52.6,5.2,52.6c-0.5-24.5-11.6-44.6-22.4-63.2S22,37.7,22,62.6v15.8c0,0-16.2,11-22.1,28.9
		C-0.1,107.4-1,95.5,6.6,81.1z"/>
</g>
</svg>
