<?xml version="1.0" encoding="utf-8"?>
<!-- Generator: Adobe Illustrator 19.1.1, SVG Export Plug-In . SVG Version: 6.00 Build 0)  -->
<svg version="1.1" id="Layer_1" xmlns="http://www.w3.org/2000/svg" xmlns:xlink="http://www.w3.org/1999/xlink" x="0px" y="0px"
	 viewBox="-99 328.4 412 137.6" style="enable-background:new -99 328.4 412 137.6;" xml:space="preserve">
<style type="text/css">
	.st0{fill:#404449;}
</style>
<g>
	<g>
		<path class="st0" d="M-61.4,395.8l31-31.1l31,31.1l18.1-18.1l-49.1-49.3l-49.1,49.2L-61.4,395.8z M5.9,377.6l-5.3,5.3l-31-31.1
			l-31,31.1l-5.3-5.3l36.3-36.4L5.9,377.6z"/>
	</g>
	<g>
		<polygon class="st0" points="-34.4,433.1 -34.4,422.4 -55.5,401.4 -49,394.9 -34.4,409.5 -34.4,382 -26.4,382 -26.4,409.5 
			-11.6,394.9 -5.3,401.4 -26.4,422.4 -26.4,433.1 31.6,375.2 38.2,381.7 18.8,401.2 28.9,411.2 22.4,417.7 12.1,407.6 -26.4,445.9 
			-26.4,466 -34.4,466 -34.4,445.9 -72.9,407.6 -83.1,417.7 -89.6,411.2 -79.5,401.2 -99,381.7 -92.4,375.2 		"/>
	</g>
</g>
<g>
	<g>
		<path class="st0" d="M116.7,360.7h1.1h23.8c0.6,0,1.1,0.5,1.1,1.1v6.3c0,0.6-0.5,1.1-1.1,1.1h-15.9v7.1h13.1
			c0.6,0,1.1,0.5,1.1,1.1v6.3c0,0.6-0.5,1.1-1.1,1.1h-13.1v7.7h15.9c0.6,0,1.1,0.5,1.1,1.1v6.3c0,0.6-0.5,1.1-1.1,1.1h-23.8h-1.1
			C116.7,401,116.7,360.7,116.7,360.7z"/>
		<path class="st0" d="M148.6,360.7h1.7h7.6c0.5,0,0.9,0.3,1,0.6l9.5,21h0.3l9.5-21c0.1-0.3,0.5-0.6,1-0.6h7.6h1.7l-18.8,40.1
			c-0.2,0.3-0.5,0.6-1,0.6h-0.6c-0.5,0-0.8-0.3-1-0.6L148.6,360.7z"/>
		<path class="st0" d="M230.8,361.1c0-0.6,0.5-1,1.1-1h1.4l22.9,22h0.1v-20.4c0-0.6,0.5-1.1,1.1-1.1h6.9c0.6,0,1.1,0.5,1.1,1.1v39.7
			h-1.1h-0.9c-0.2,0-0.6-0.2-0.7-0.3L240,378.3h-0.1v21.4c0,0.6-0.5,1.1-1.1,1.1h-7.9L230.8,361.1z"/>
		<path class="st0" d="M206.2,360.7c-0.2-0.3-0.6-0.7-1-0.7h-0.6c-0.4,0-0.8,0.3-1,0.7L185,400.8h1.7h6.3c1.1,0,1.8-0.7,2.1-1.4
			l3.1-7.1l13.4,0.1l3.3,7c0.5,1.1,1,1.4,2,1.4h6.4h1.7L206.2,360.7z M207.6,380.6l-2.6,4.1h-0.1h-0.1l-2.6-4.1v-0.1l2.6-4.1
			c0,0,0.1-0.1,0.2,0l2.6,4.1C207.6,380.6,207.6,380.6,207.6,380.6"/>
		<path class="st0" d="M294.1,360.7c-0.2-0.3-0.6-0.7-1-0.7h-0.6c-0.4,0-0.8,0.3-1,0.7L273,400.8h1.7h6.3c1.1,0,1.8-0.7,2.1-1.4
			l3.1-7.1l13.4,0.1l3.3,7c0.5,1.1,1,1.4,2,1.4h6.4h1.7L294.1,360.7z M295.5,380.6l-2.6,4.1h-0.1h-0.1l-2.6-4.1v-0.1l2.6-4.1
			c0,0,0.1-0.1,0.2,0l2.6,4.1C295.6,380.6,295.6,380.6,295.5,380.6"/>
		<path class="st0" d="M71.9,360.8h1h13.8c10.9,0,19.8,8.8,19.8,19.7c0,10.9-8.9,19.8-19.8,19.8H72.9h-1V360.8z M86.1,391.9
			c6.4,0,11-5,11-11.4s-4.6-11.4-11-11.4h-5.4v22.8H86.1z"/>
		<path class="st0" d="M71.9,433.6v-16.7c0-0.5,0.3-0.8,0.8-0.8h2.5c0.4,0,0.6,0.3,0.6,0.8v0.3c0,0.5-0.2,0.8-0.6,0.8h-1v14.5h1
			c0.4,0,0.6,0.3,0.6,0.8v0.3c0,0.5-0.2,0.8-0.6,0.8h-2.5C72.2,434.4,71.9,434.1,71.9,433.6"/>
		<path class="st0" d="M81.7,430.8v-12.7c0-0.4,0.4-0.6,1.2-0.6h0.7c0.8,0,1.2,0.2,1.2,0.6V429h4.5c0.4,0,0.6,0.3,0.6,1v0.6
			c0,0.7-0.2,1-0.6,1h-6.8C82,431.6,81.7,431.3,81.7,430.8"/>
		<path class="st0" d="M94.3,431.2c0-0.1,0-0.2,0.1-0.4l4.4-13c0.1-0.3,0.5-0.4,1.2-0.4h1.1c0.7,0,1,0.1,1.2,0.4l4.4,13
			c0,0.1,0.1,0.3,0.1,0.4c0,0.3-0.3,0.4-1,0.4h-0.9c-0.7,0-1-0.1-1.1-0.4l-0.8-2.5h-4.8l-0.8,2.5c-0.1,0.3-0.4,0.4-0.9,0.4h-0.8
			C94.7,431.7,94.3,431.5,94.3,431.2 M99,426.1h3l-1.2-3.6l-0.3-1.3h-0.1c-0.1,0.6-0.2,1.1-0.3,1.3L99,426.1z"/>
		<path class="st0" d="M111.6,430.8v-12.5c0-0.5,0.3-0.8,0.8-0.8h4c1.6,0,2.8,0.3,3.6,0.9c0.8,0.6,1.2,1.5,1.2,2.6
			c0,0.7-0.2,1.3-0.6,1.8c-0.4,0.6-0.9,1-1.6,1.2v0.1c0.8,0.2,1.5,0.6,2,1.2s0.8,1.3,0.8,2.1c0,1.3-0.4,2.3-1.3,3
			c-0.8,0.7-2.1,1.1-3.8,1.1h-4.3C111.9,431.6,111.6,431.3,111.6,430.8 M114.7,423.1h1.4c0.6,0,1.1-0.1,1.4-0.4s0.5-0.6,0.5-1.1
			c0-1-0.6-1.5-1.8-1.5h-1.4L114.7,423.1L114.7,423.1z M114.7,429h2c0.6,0,1.1-0.1,1.4-0.4s0.5-0.7,0.5-1.2c0-1-0.7-1.6-2.2-1.6
			h-1.7C114.7,425.8,114.7,429,114.7,429z"/>
		<path class="st0" d="M126.5,430c0-0.3,0.2-0.7,0.5-1.1s0.6-0.7,0.8-0.7c0.1,0,0.3,0.1,0.5,0.2c0.8,0.5,1.7,0.7,2.4,0.7
			c1.3,0,1.9-0.5,1.9-1.5c0-0.4-0.2-0.8-0.6-1.1c-0.4-0.3-0.9-0.6-1.5-0.8c-0.6-0.2-1.1-0.5-1.7-0.8c-0.6-0.3-1.1-0.7-1.5-1.3
			c-0.4-0.6-0.6-1.4-0.6-2.3s0.2-1.7,0.7-2.3c0.9-1.2,2.2-1.8,4.1-1.8c1,0,1.9,0.1,2.6,0.4c0.7,0.3,1,0.6,1,1c0,0.3-0.1,0.7-0.4,1.1
			c-0.3,0.4-0.5,0.7-0.7,0.7c-0.1,0-0.2,0-0.4-0.1c-0.5-0.2-1.2-0.4-1.9-0.4s-1.2,0.1-1.5,0.4c-0.3,0.2-0.4,0.5-0.4,0.9
			s0.2,0.7,0.6,1c0.4,0.3,0.9,0.5,1.5,0.7s1.1,0.5,1.7,0.8c0.6,0.3,1.1,0.7,1.5,1.3c0.4,0.6,0.6,1.3,0.6,2.2c0,0.8-0.1,1.6-0.4,2.2
			c-0.3,0.6-0.6,1.1-1.1,1.4c-0.9,0.6-2,1-3.3,1s-2.4-0.2-3.3-0.6C127,430.8,126.5,430.4,126.5,430"/>
		<path class="st0" d="M141.3,432.5h1V418h-1c-0.4,0-0.6-0.3-0.6-0.8v-0.3c0-0.5,0.2-0.8,0.6-0.8h2.5c0.5,0,0.8,0.3,0.8,0.8v16.7
			c0,0.5-0.3,0.8-0.8,0.8h-2.5c-0.4,0-0.6-0.3-0.6-0.8v-0.3C140.7,432.8,140.9,432.5,141.3,432.5"/>
	</g>
</g>
</svg>
