<?xml version="1.0" encoding="utf-8"?>
<!-- Generator: Adobe Illustrator 19.1.1, SVG Export Plug-In . SVG Version: 6.00 Build 0)  -->
<svg version="1.1" id="Layer_1" xmlns="http://www.w3.org/2000/svg" xmlns:xlink="http://www.w3.org/1999/xlink" x="0px" y="0px"
	 viewBox="0 0 30 30" style="enable-background:new 0 0 30 30;" xml:space="preserve">
<style type="text/css">
	.st0{fill:#4D4D4D;}
</style>
<g>
	<path class="st0" d="M1.6,21c1.4,3,3.7,5.2,6.5,6.7C7.9,26,7.7,24,7.6,21H1.6z"/>
	<path class="st0" d="M8.2,1c-3,1.5-5.4,4-6.8,7h6.2C7.7,5,8,2.4,8.2,1z"/>
	<path class="st0" d="M10.6,8h8.7c-0.3-5-0.8-7.7-0.8-7.8l0.3,0.1C17.5,0.1,16.3,0,15,0c-1.3,0-2.6,0.2-3.8,0.5l0.1-0.3
		C11.4,0.2,10.9,3,10.6,8z"/>
	<path class="st0" d="M28.6,8c-1.4-3-3.9-5.6-6.9-7.1C21.8,2.3,22.1,5,22.3,8H28.6z"/>
	<path class="st0" d="M10.6,21c0.2,4,0.4,6.7,0.6,8.3c1.2,0.3,2.5,0.7,3.8,0.7c1.3,0,2.5-0.5,3.6-0.8c0.2-1.6,0.5-4.2,0.6-8.2H10.6z
		"/>
	<path class="st0" d="M7.4,14.3c0-1.2,0-1.3,0-3.3H0.4C0.1,13,0,13.2,0,14.3C0,15.6,0.2,17,0.5,18h7C7.4,17,7.4,15.6,7.4,14.3z"/>
	<path class="st0" d="M10.5,11c0,2,0,2.2,0,3.3c0,1.3,0,2.7,0.1,3.7h8.9c0-1,0-2.4,0-3.7c0-1.2,0-1.3,0-3.3H10.5z"/>
	<path class="st0" d="M21.8,27.7c2.9-1.5,5.2-3.7,6.6-6.7h-6.2C22.1,24,21.9,26.1,21.8,27.7z"/>
	<path class="st0" d="M22.4,14.3c0,1.3,0,2.7,0,3.7h7.2c0.3-1,0.5-2.4,0.5-3.7c0-1.2-0.1-1.3-0.4-3.3h-7.2
		C22.4,13,22.4,13.2,22.4,14.3z"/>
</g>
</svg>
