<?xml version="1.0" encoding="utf-8"?>
<!-- Generator: Adobe Illustrator 19.1.1, SVG Export Plug-In . SVG Version: 6.00 Build 0)  -->
<svg version="1.1" id="Layer_1" xmlns="http://www.w3.org/2000/svg" xmlns:xlink="http://www.w3.org/1999/xlink" x="0px" y="0px"
	 viewBox="0 0 800 600" style="enable-background:new 0 0 800 600;" xml:space="preserve">
<style type="text/css">
	.st0{fill:#FFFFFF;}
</style>
<path class="st0" d="M30.3,442.1c41-78.9,70.3-114.8,70.3-114.8S90.6,224,86.6,140.7c-4-83.3,60.9-94.9,112.6-43.1
	s56.3,86.1,56.3,86.1L424.3,83.3C610.5-25.4,852.2-48.3,790.1,140.7S396.1,528.2,396.1,528.2c370.5-267.6,173.5-308.4,70.3-287.1
	s-154.8,71.8-154.8,71.8C370.3,439.2,339.9,600,339.9,600c-2.6-133.7-54.7-243.4-113-344.5s-98.9-50-98.9,86.1v86.1
	c0,0-94.6,59.8-126.2,157.9C1.8,585.6-10.7,521.1,30.3,442.1z"/>
</svg>
