<?xml version="1.0" encoding="utf-8"?>
<!-- Generator: Adobe Illustrator 19.1.1, SVG Export Plug-In . SVG Version: 6.00 Build 0)  -->
<svg version="1.1" id="Layer_1" xmlns="http://www.w3.org/2000/svg" xmlns:xlink="http://www.w3.org/1999/xlink" x="0px" y="0px"
	 viewBox="0 0 14.8 18" style="enable-background:new 0 0 14.8 18;" xml:space="preserve">
<style type="text/css">
	.st0{fill:#4D4D4D;}
</style>
<path class="st0" d="M11.9,6.3h-0.8V4.8C11.2,2.7,9.5,1,7.4,1S3.7,2.7,3.7,4.8v1.5H2.9C2.1,6.3,1.4,7,1.4,7.9v7.6
	c0,0.8,0.7,1.5,1.5,1.5h9c0.8,0,1.5-0.7,1.5-1.5V7.9C13.4,7,12.7,6.3,11.9,6.3z M7.4,13.2c-0.8,0-1.5-0.7-1.5-1.5s0.7-1.5,1.5-1.5
	c0.8,0,1.5,0.7,1.5,1.5S8.3,13.2,7.4,13.2z M9.7,6.3H5.1V4.8c0-1.3,1-2.4,2.3-2.4s2.3,1.1,2.3,2.4V6.3z"/>
</svg>
