<?xml version="1.0" encoding="utf-8"?>
<!-- Generator: Adobe Illustrator 19.1.1, SVG Export Plug-In . SVG Version: 6.00 Build 0)  -->
<svg version="1.1" id="Layer_1" xmlns="http://www.w3.org/2000/svg" xmlns:xlink="http://www.w3.org/1999/xlink" x="0px" y="0px"
	 viewBox="0 0 14.8 18" style="enable-background:new 0 0 14.8 18;" xml:space="preserve">
<style type="text/css">
	.st0{fill:#4D4D4D;}
</style>
<path class="st0" d="M7.4,13.7c0.9,0,1.7-0.8,1.7-1.7s-0.8-1.7-1.7-1.7S5.7,11.1,5.7,12S6.5,13.7,7.4,13.7z M12.6,6h-0.9V4.3
	C11.7,1.9,9.8,0,7.4,0S3.1,1.9,3.1,4.3V6H2.3C1.3,6,0.6,6.8,0.6,7.7v8.6c0,0.9,0.8,1.7,1.7,1.7h10.3c0.9,0,1.7-0.8,1.7-1.7V7.7
	C14.3,6.8,13.5,6,12.6,6z M4.8,4.3c0-1.5,1.2-2.7,2.7-2.7s2.7,1.2,2.7,2.7V6H4.8V4.3z M12.6,16.3H2.3V7.7h10.3V16.3z"/>
</svg>
